<mxfile host="app.diagrams.net" modified="2023-04-16T14:22:13.572Z" agent="Mozilla/5.0 (Windows NT 10.0; Win64; x64) AppleWebKit/537.36 (KHTML, like Gecko) Chrome/112.0.0.0 Safari/537.36" version="21.1.8" etag="QtFoEc4q10n7ctauIREo" type="github">
  <diagram name="Page-1" id="GR2TPCHIKVuN_qiPYWpH">
    <mxGraphModel>
      <root>
        <mxCell id="0" />
        <mxCell id="1" parent="0" />
      </root>
    </mxGraphModel>
  </diagram>
</mxfile>
